# xmcd
#
# Track frame offsets: 
#        150
#        12082
#        27541
#        40234
#        48099
#        60454
#        77596
#        90490
#        107222
#        120918
#        124084
#        136667
#        142550
#        155992
#        157378
#        174253
#        181054
#        192154
#        207664
#        223069
#        238801
#        254403
#        274975
#        294368
#
# Disc length: 4178 seconds
#
# Revision: 0
# Processed by: cddbd v1.5.2PL0 Copyright (c) Steve Scherf et al.
# Submitted via: ExactAudioCopy v0.99pb5
#
DISCID=52105018
DTITLE=The Beatles - Contemporary Sound - Complete Revisionist Remixes
DTITLE=D 5
DYEAR=1900
DGENRE=
TTITLE0=Only a Northern Song (ysrmm)
TTITLE1=Only a Northern Song (yss dledin)
TTITLE2=Only a Northern Song (anth 2)
TTITLE3=All You Need Is Love (imagine laser)
TTITLE4=All You Need Is Love (ysrmm)
TTITLE5=All You Need Is Love (yss dledin)
TTITLE6=All You Need Is Love (LOVE)
TTITLE7=All You Need Is Love (rockband)
TTITLE8=Baby You_re a Rich Man (yss dledin)
TTITLE9=Magical Mystery Tour (ant dvd)
TTITLE10=Magical Mystery Tour (laserdisc88comp)
TTITLE11=The Fool on the Hill (ant dvd)
TTITLE12=The Fool on the Hill (1993 67-70 promo)
TTITLE13=Flying (ant dvd)
TTITLE14=Blue Jay Way (laserdisc88)
TTITLE15=Your Mother Should Know (ant dvd)
TTITLE16=Your Mother Should Know (laserdisc88)
TTITLE17=Hello Goodbye (1993 promo video)
TTITLE18=Hello Goodbye (2000 1 promo)
TTITLE19=Hello Goodbye (ant dvd)
TTITLE20=Hello Goodbye (rockband)
TTITLE21=I am the Walrus (ant dvd)
TTITLE22=I am the Walrus (LOVE)
TTITLE23=I am the Walrus (rockband)
EXTD=
EXTT0=
EXTT1=
EXTT2=
EXTT3=
EXTT4=
EXTT5=
EXTT6=
EXTT7=
EXTT8=
EXTT9=
EXTT10=
EXTT11=
EXTT12=
EXTT13=
EXTT14=
EXTT15=
EXTT16=
EXTT17=
EXTT18=
EXTT19=
EXTT20=
EXTT21=
EXTT22=
EXTT23=
PLAYORDER=
